<?xml version="1.0" standalone="no"?>
<!DOCTYPE svg PUBLIC "-//W3C//DTD SVG 20010904//EN"
 "http://www.w3.org/TR/2001/REC-SVG-20010904/DTD/svg10.dtd">
<svg version="1.0" xmlns="http://www.w3.org/2000/svg"
 width="700.000000pt" height="700.000000pt" viewBox="0 0 700.000000 700.000000"
 preserveAspectRatio="xMidYMid meet">
<metadata>
Created by potrace 1.11, written by Peter Selinger 2001-2013
</metadata>
<g transform="translate(0.000000,700.000000) scale(0.100000,-0.100000)"
fill="#000000" stroke="none">
<path d="M0 3500 l0 -3500 1164 0 c922 0 1165 3 1168 12 2 7 3 533 3 1168 l-1
1155 1166 0 1166 0 -1 -1155 c0 -635 1 -1161 3 -1168 3 -9 246 -12 1168 -12
l1164 0 0 3500 0 3500 -1167 -2 -1167 -3 -1 -1140 c0 -627 2 -1151 6 -1165 l6
-25 -1161 1 c-639 1 -1166 2 -1172 3 -7 1 -10 338 -10 1149 1 631 0 1155 -3
1165 -3 16 -67 17 -1167 17 l-1164 0 0 -3500z"/>
</g>
</svg>
